<svg width="667" height="230" viewBox="0 0 667 230" xmlns="http://www.w3.org/2000/svg" xmlns:xlink="http://www.w3.org/1999/xlink">
  <defs>
    <path id="a" d="M0 181h666.752V.245H0z"/>
    <linearGradient x1="25.258%" y1="87.325%" x2="62.493%" y2="-5.315%" id="c">
      <stop stop-color="#FD9" stop-opacity="0" offset="14.42%"/>
      <stop stop-color="#EFEFEF" offset="94.42%"/>
    </linearGradient>
    <linearGradient x1="50.835%" y1="25.666%" x2="52.943%" y2="91.893%" id="d">
      <stop stop-color="#FD9" stop-opacity="0" offset="14.42%"/>
      <stop stop-color="#FFFFE0" offset="94.42%"/>
    </linearGradient>
    <linearGradient x1="50.022%" y1="46.509%" x2="50.022%" y2="-18.982%" id="e">
      <stop stop-color="#FD9" stop-opacity="0" offset="14.42%"/>
      <stop stop-color="#EFEFEF" offset="94.42%"/>
    </linearGradient>
    <linearGradient x1="108.585%" y1="73.017%" x2="-8.888%" y2="-4.019%" id="f">
      <stop stop-color="#FD9" stop-opacity="0" offset="14.42%"/>
      <stop stop-color="#EFEFEF" offset="94.42%"/>
    </linearGradient>
    <linearGradient x1="49.058%" y1="-19.167%" x2="50.828%" y2="130.909%" id="g">
      <stop stop-color="#FD9" stop-opacity="0" offset="14.42%"/>
      <stop stop-color="#EFEFEF" offset="94.42%"/>
    </linearGradient>
  </defs>
  <g fill="none" fill-rule="evenodd">
    <path d="M1 214h664H1z" fill="#FFF"/>
    <g transform="translate(0 34)">
      <path d="M1.26 179.74h664.23H1.26z" stroke="#E1E4E5" stroke-width="2.52" stroke-linecap="round" stroke-linejoin="round"/>
      <path d="M449.36 36.41c9.506 0 5.058-15.076-6.983-11.475C441.71 4 407.6-11.315 393.497 16.92c-3.988-3.158-12.943 2.805-10.96 8.015-4.43.377-7.916.89-10.626 1.57-6.26 1.566-5.02 9.835 1.433 9.777l76.018.128z" fill="#FFF"/>
      <path d="M449.36 36.41c9.506 0 5.058-15.076-6.983-11.475C441.71 4 407.6-11.315 393.497 16.92c-3.988-3.158-12.943 2.805-10.96 8.015-4.43.377-7.916.89-10.626 1.57-6.26 1.566-5.02 9.835 1.433 9.777l76.018.128z" stroke="#E1E4E5" stroke-width="2.52" stroke-linecap="round" stroke-linejoin="round"/>
      <path d="M563.966 56.41h-42.094c-3.41 0-4.878-4.414-2.088-6.373l.118-.083c3.97-2.73 9.184-2.483 9.184-2.483s.744-14.77 14.767-14.77c6.933 0 12.535 11.854 12.535 11.854s9.43 0 10.992 7.45c.473 2.256-1.11 4.406-3.414 4.406" fill="#FFF"/>
      <path d="M563.966 56.41h-42.094c-3.41 0-4.878-4.414-2.088-6.373l.118-.083c3.97-2.73 9.184-2.483 9.184-2.483s.744-14.77 14.767-14.77c6.933 0 12.535 11.854 12.535 11.854s9.43 0 10.992 7.45c.473 2.256-1.11 4.406-3.414 4.406z" stroke="#E1E4E5" stroke-width="2.52" stroke-linecap="round" stroke-linejoin="round"/>
      <path d="M129.634 30.264h39.648c3.544 0 5.072-4.59 2.17-6.63l-.122-.084c-4.13-2.84-9.55-2.582-9.55-2.582s-.775-15.364-15.36-15.364c-13.183 0-18.44 12.946-20.338 20.077-.616 2.318 1.155 4.584 3.552 4.584" fill="#FFF"/>
      <path d="M129.634 30.264h39.648c3.544 0 5.072-4.59 2.17-6.63l-.122-.084c-4.13-2.84-9.55-2.582-9.55-2.582s-.775-15.364-15.36-15.364c-13.183 0-18.44 12.946-20.338 20.077-.616 2.318 1.155 4.584 3.552 4.584z" stroke="#E1E4E5" stroke-width="2.52" stroke-linecap="round" stroke-linejoin="round"/>
      <path d="M200.463 57.86h76.372c7.17 0 6.84-5.905 4.498-7.963-2.4-2.11-7.142-1.253-7.142-1.253s-1.41-3.972-6.058-5.906c-4.11-1.71-8.418-.895-8.418-.895s0-2.727-2.63-4.985c-2.633-2.257-6.143-2.037-6.143-2.037s-2.412-15.03-18.533-15.03c-16.12 0-17.986 14.153-17.986 14.153s-3.618 0-6.25 2.413c-2.632 2.414-2.96 5.157-2.96 5.157s-8.804-1.187-11.406 6.41c-1.55 4.527 1.635 9.937 6.66 9.937" fill="#FFF"/>
      <path d="M200.463 57.86h76.372c7.17 0 6.84-5.905 4.498-7.963-2.4-2.11-7.142-1.253-7.142-1.253s-1.41-3.972-6.058-5.906c-4.11-1.71-8.418-.895-8.418-.895s0-2.727-2.63-4.985c-2.633-2.257-6.143-2.037-6.143-2.037s-2.412-15.03-18.533-15.03c-16.12 0-17.986 14.153-17.986 14.153s-3.618 0-6.25 2.413c-2.632 2.414-2.96 5.157-2.96 5.157s-8.804-1.187-11.406 6.41c-1.55 4.527 1.635 9.937 6.66 9.937z" stroke="#E1E4E5" stroke-width="2.52" stroke-linecap="round" stroke-linejoin="round"/>
      <mask id="b" fill="#fff">
        <use xlink:href="#a"/>
      </mask>
      <path fill="#FFF" mask="url(#b)" d="M300.895 179.74h76.602V33.295h-76.602"/>
      <path stroke="#E1E4E5" stroke-width="2.52" stroke-linecap="round" stroke-linejoin="round" mask="url(#b)" d="M300.895 179.74h76.602V33.295h-76.602z"/>
      <path fill="#FFF" mask="url(#b)" d="M149.084 179.74h93.66V130.25h-93.66"/>
      <path stroke="#E1E4E5" stroke-width="2.52" stroke-linecap="round" stroke-linejoin="round" mask="url(#b)" d="M149.084 179.74h93.66V130.25h-93.66z"/>
      <path fill="#FFF" mask="url(#b)" d="M414.928 179.74h93.66v-65.423h-93.66"/>
      <path stroke="#E1E4E5" stroke-width="2.52" stroke-linecap="round" stroke-linejoin="round" mask="url(#b)" d="M414.928 179.74h93.66v-65.423h-93.66z"/>
      <path fill="#FFF" mask="url(#b)" d="M272.102 179.415h63.79V70.11h-63.79"/>
      <path stroke="#E1E4E5" stroke-width="2.52" stroke-linecap="round" stroke-linejoin="round" mask="url(#b)" d="M272.102 179.415h63.79V70.11h-63.79z"/>
      <path fill="#FFF" mask="url(#b)" d="M266.763 73.835h74.466v-5.68h-74.467"/>
      <path stroke="#E1E4E5" stroke-width="2.52" stroke-linecap="round" stroke-linejoin="round" mask="url(#b)" d="M266.763 73.835h74.466v-5.68h-74.467z"/>
      <g mask="url(#b)">
        <path d="M272.164 108.91h62.867" fill="#FFF"/>
        <path d="M272.164 108.91h62.867" stroke="#E1E4E5" stroke-width="2.52" stroke-linecap="round" stroke-linejoin="round"/>
      </g>
      <g mask="url(#b)">
        <path d="M273.428 145.374h62.008" fill="#FFF"/>
        <path d="M273.428 145.374h62.008" stroke="#E1E4E5" stroke-width="2.52" stroke-linecap="round" stroke-linejoin="round"/>
      </g>
      <path fill="#FFF" mask="url(#b)" d="M281.842 137.17h8.793v-19.05h-8.793"/>
      <path stroke="#E1E4E5" stroke-width="2.52" stroke-linecap="round" stroke-linejoin="round" mask="url(#b)" d="M281.842 137.17h8.793v-19.05h-8.793z"/>
      <path fill="#FFF" mask="url(#b)" d="M300.193 137.17h8.794v-19.05h-8.794"/>
      <path stroke="#E1E4E5" stroke-width="2.52" stroke-linecap="round" stroke-linejoin="round" mask="url(#b)" d="M300.193 137.17h8.794v-19.05h-8.794z"/>
      <path fill="#FFF" mask="url(#b)" d="M318.602 137.17h8.794v-19.05h-8.794"/>
      <path stroke="#E1E4E5" stroke-width="2.52" stroke-linecap="round" stroke-linejoin="round" mask="url(#b)" d="M318.602 137.17h8.794v-19.05h-8.794z"/>
      <path fill="#FFF" mask="url(#b)" d="M281.842 101.574h8.793v-19.05h-8.793"/>
      <path stroke="#E1E4E5" stroke-width="2.52" stroke-linecap="round" stroke-linejoin="round" mask="url(#b)" d="M281.842 101.574h8.793v-19.05h-8.793z"/>
      <path fill="#FFF" mask="url(#b)" d="M300.193 101.574h8.794v-19.05h-8.794"/>
      <path stroke="#E1E4E5" stroke-width="2.52" stroke-linecap="round" stroke-linejoin="round" mask="url(#b)" d="M300.193 101.574h8.794v-19.05h-8.794z"/>
      <path fill="#FFF" mask="url(#b)" d="M318.602 101.574h8.794v-19.05h-8.794"/>
      <path stroke="#E1E4E5" stroke-width="2.52" stroke-linecap="round" stroke-linejoin="round" mask="url(#b)" d="M318.602 101.574h8.794v-19.05h-8.794z"/>
      <path fill="#FFF" mask="url(#b)" d="M281.842 172.74h8.793v-19.05h-8.793"/>
      <path stroke="#E1E4E5" stroke-width="2.52" stroke-linecap="round" stroke-linejoin="round" mask="url(#b)" d="M281.842 172.74h8.793v-19.05h-8.793z"/>
      <path fill="#FFF" mask="url(#b)" d="M300.193 179.74h8.794v-26.05h-8.794"/>
      <path stroke="#E1E4E5" stroke-width="2.52" stroke-linecap="round" stroke-linejoin="round" mask="url(#b)" d="M300.193 179.74h8.794v-26.05h-8.794z"/>
      <path fill="#FFF" mask="url(#b)" d="M318.602 172.74h8.794v-19.05h-8.794"/>
      <path stroke="#E1E4E5" stroke-width="2.52" stroke-linecap="round" stroke-linejoin="round" mask="url(#b)" d="M318.602 172.74h8.794v-19.05h-8.794z"/>
      <path fill="#FFF" mask="url(#b)" d="M360.424 179.353h75.908V49.28h-75.908"/>
      <path stroke="#E1E4E5" stroke-width="2.52" stroke-linecap="round" stroke-linejoin="round" mask="url(#b)" d="M360.424 179.353h75.908V49.28h-75.908z"/>
      <path fill="#FFF" mask="url(#b)" d="M360.424 179.353h75.908v-6.613h-75.908"/>
      <path stroke="#E1E4E5" stroke-width="2.52" stroke-linecap="round" stroke-linejoin="round" mask="url(#b)" d="M360.424 179.353h75.908v-6.613h-75.908z"/>
      <path fill="#FFF" mask="url(#b)" d="M354.07 52.858h88.614v-5.902H354.07"/>
      <path stroke="#E1E4E5" stroke-width="2.52" stroke-linecap="round" stroke-linejoin="round" mask="url(#b)" d="M354.07 52.858h88.614v-5.902H354.07z"/>
      <g mask="url(#b)">
        <path d="M362 145.374h74.81" fill="#FFF"/>
        <path d="M362 145.374h74.81" stroke="#E1E4E5" stroke-width="2.52" stroke-linecap="round" stroke-linejoin="round"/>
      </g>
      <path fill="#FFF" mask="url(#b)" d="M393.852 179.74h10.465v-26.05h-10.465"/>
      <path stroke="#E1E4E5" stroke-width="2.52" stroke-linecap="round" stroke-linejoin="round" mask="url(#b)" d="M393.852 179.74h10.465v-26.05h-10.465z"/>
      <path fill="#FFF" mask="url(#b)" d="M415.697 172.33h10.466v-9.973h-10.466"/>
      <path stroke="#E1E4E5" stroke-width="2.52" stroke-linecap="round" stroke-linejoin="round" mask="url(#b)" d="M415.697 172.33h10.466v-9.973h-10.466z"/>
      <path fill="#FFF" mask="url(#b)" d="M372.4 172.33h10.464v-9.973H372.4"/>
      <path stroke="#E1E4E5" stroke-width="2.52" stroke-linecap="round" stroke-linejoin="round" mask="url(#b)" d="M372.4 172.33h10.464v-9.973H372.4z"/>
      <path fill="#FFF" mask="url(#b)" d="M415.697 135.903h10.466v-9.973h-10.466"/>
      <path stroke="#E1E4E5" stroke-width="2.52" stroke-linecap="round" stroke-linejoin="round" mask="url(#b)" d="M415.697 135.903h10.466v-9.973h-10.466z"/>
      <path fill="#FFF" mask="url(#b)" d="M372.4 135.903h10.464v-9.973H372.4"/>
      <path stroke="#E1E4E5" stroke-width="2.52" stroke-linecap="round" stroke-linejoin="round" mask="url(#b)" d="M372.4 135.903h10.464v-9.973H372.4z"/>
      <path fill="#FFF" mask="url(#b)" d="M393.852 135.903h10.465v-9.973h-10.465"/>
      <path stroke="#E1E4E5" stroke-width="2.52" stroke-linecap="round" stroke-linejoin="round" mask="url(#b)" d="M393.852 135.903h10.465v-9.973h-10.465z"/>
      <path fill="#FFF" mask="url(#b)" d="M415.697 115.175h10.466v-9.973h-10.466"/>
      <path stroke="#E1E4E5" stroke-width="2.52" stroke-linecap="round" stroke-linejoin="round" mask="url(#b)" d="M415.697 115.175h10.466v-9.973h-10.466z"/>
      <path fill="#FFF" mask="url(#b)" d="M372.4 115.175h10.464v-9.973H372.4"/>
      <path stroke="#E1E4E5" stroke-width="2.52" stroke-linecap="round" stroke-linejoin="round" mask="url(#b)" d="M372.4 115.175h10.464v-9.973H372.4z"/>
      <path fill="#FFF" mask="url(#b)" d="M393.852 115.175h10.465v-9.973h-10.465"/>
      <path stroke="#E1E4E5" stroke-width="2.52" stroke-linecap="round" stroke-linejoin="round" mask="url(#b)" d="M393.852 115.175h10.465v-9.973h-10.465z"/>
      <path fill="#FFF" mask="url(#b)" d="M415.697 95.62h10.466v-9.974h-10.466"/>
      <path stroke="#E1E4E5" stroke-width="2.52" stroke-linecap="round" stroke-linejoin="round" mask="url(#b)" d="M415.697 95.62h10.466v-9.974h-10.466z"/>
      <path fill="#FFF" mask="url(#b)" d="M372.4 95.62h10.464v-9.974H372.4"/>
      <path stroke="#E1E4E5" stroke-width="2.52" stroke-linecap="round" stroke-linejoin="round" mask="url(#b)" d="M372.4 95.62h10.464v-9.974H372.4z"/>
      <path fill="#FFF" mask="url(#b)" d="M393.852 95.62h10.465v-9.974h-10.465"/>
      <path stroke="#E1E4E5" stroke-width="2.52" stroke-linecap="round" stroke-linejoin="round" mask="url(#b)" d="M393.852 95.62h10.465v-9.974h-10.465z"/>
      <path fill="#FFF" mask="url(#b)" d="M415.697 74.89h10.466V64.92h-10.466"/>
      <path stroke="#E1E4E5" stroke-width="2.52" stroke-linecap="round" stroke-linejoin="round" mask="url(#b)" d="M415.697 74.89h10.466V64.92h-10.466z"/>
      <path fill="#FFF" mask="url(#b)" d="M372.4 74.89h10.464V64.92H372.4"/>
      <path stroke="#E1E4E5" stroke-width="2.52" stroke-linecap="round" stroke-linejoin="round" mask="url(#b)" d="M372.4 74.89h10.464V64.92H372.4z"/>
      <path fill="#FFF" mask="url(#b)" d="M393.852 74.89h10.465V64.92h-10.465"/>
      <path stroke="#E1E4E5" stroke-width="2.52" stroke-linecap="round" stroke-linejoin="round" mask="url(#b)" d="M393.852 74.89h10.465V64.92h-10.465z"/>
      <path d="M218.628 101.35h.044c1.185 0 2.146.96 2.146 2.147v76.242h-4.336v-76.243c0-1.186.96-2.147 2.146-2.147" fill="#FFF" mask="url(#b)"/>
      <path d="M218.628 101.35h.044c1.185 0 2.146.96 2.146 2.147v76.242h-4.336v-76.243c0-1.186.96-2.147 2.146-2.147z" stroke="#E1E4E5" stroke-width="2.52" stroke-linecap="round" stroke-linejoin="round" mask="url(#b)"/>
      <path d="M180.637 126.098c0 21.094 17.093 38.195 38.18 38.195s38.18-17.1 38.18-38.195c0-21.094-17.093-43.186-38.18-43.186s-38.18 22.092-38.18 43.186" fill="#FFF" mask="url(#b)"/>
      <path d="M180.637 126.098c0 21.094 17.093 38.195 38.18 38.195s38.18-17.1 38.18-38.195c0-21.094-17.093-43.186-38.18-43.186s-38.18 22.092-38.18 43.186z" stroke="#E1E4E5" stroke-width="2.52" stroke-linecap="round" stroke-linejoin="round" mask="url(#b)"/>
      <path fill="#FFF" mask="url(#b)" d="M80.85 179.74h90.087v-68.646H80.85"/>
      <path stroke="#E1E4E5" stroke-width="2.52" stroke-linecap="round" stroke-linejoin="round" mask="url(#b)" d="M80.85 179.74h90.087v-68.646H80.85z"/>
      <path fill="#FFF" mask="url(#b)" d="M77.223 114.347h97.342v-5.067H77.223"/>
      <path stroke="#E1E4E5" stroke-width="2.52" stroke-linecap="round" stroke-linejoin="round" mask="url(#b)" d="M77.223 114.347h97.342v-5.067H77.223z"/>
      <path fill="#FFF" mask="url(#b)" d="M116.69 179.415h18.408V153.69H116.69"/>
      <path stroke="#E1E4E5" stroke-width="2.52" stroke-linecap="round" stroke-linejoin="round" mask="url(#b)" d="M116.69 179.415h18.408V153.69H116.69z"/>
      <path fill="#FFF" mask="url(#b)" d="M115.764 147.028h20.26v-22.25h-20.26"/>
      <path stroke="#E1E4E5" stroke-width="2.52" stroke-linecap="round" stroke-linejoin="round" mask="url(#b)" d="M115.764 147.028h20.26v-22.25h-20.26z"/>
      <path fill="#FFF" mask="url(#b)" d="M145.217 179.353h18.763v-54.575h-18.763"/>
      <path stroke="#E1E4E5" stroke-width="2.52" stroke-linecap="round" stroke-linejoin="round" mask="url(#b)" d="M145.217 179.353h18.763v-54.575h-18.763z"/>
      <path fill="#FFF" mask="url(#b)" d="M88.57 179.353h18.762v-54.575H88.57"/>
      <path stroke="#E1E4E5" stroke-width="2.52" stroke-linecap="round" stroke-linejoin="round" mask="url(#b)" d="M88.57 179.353h18.762v-54.575H88.57z"/>
      <path fill="#FFF" mask="url(#b)" d="M526.94 179.415h58.494v-34.04H526.94"/>
      <path stroke="#E1E4E5" stroke-width="2.52" stroke-linecap="round" stroke-linejoin="round" mask="url(#b)" d="M526.94 179.415h58.494v-34.04H526.94z"/>
      <path fill="#FFF" mask="url(#b)" d="M522.845 145.44h66.685v-4.87h-66.685"/>
      <path stroke="#E1E4E5" stroke-width="2.52" stroke-linecap="round" stroke-linejoin="round" mask="url(#b)" d="M522.845 145.44h66.685v-4.87h-66.685z"/>
      <path fill="#FFF" mask="url(#b)" d="M537.66 179.74h10.463v-26.05H537.66"/>
      <path stroke="#E1E4E5" stroke-width="2.52" stroke-linecap="round" stroke-linejoin="round" mask="url(#b)" d="M537.66 179.74h10.463v-26.05H537.66z"/>
      <path fill="#FFF" mask="url(#b)" d="M556.188 172.33h21.056v-17.335h-21.056"/>
      <path stroke="#E1E4E5" stroke-width="2.52" stroke-linecap="round" stroke-linejoin="round" mask="url(#b)" d="M556.188 172.33h21.056v-17.335h-21.056z"/>
      <path d="M488.57 80.765h.044c1.186 0 2.147.96 2.147 2.147v96.827h-4.336V82.91c0-1.186.962-2.147 2.147-2.147" fill="#FFF" mask="url(#b)"/>
      <path d="M488.57 80.765h.044c1.186 0 2.147.96 2.147 2.147v96.827h-4.336V82.91c0-1.186.962-2.147 2.147-2.147z" stroke="#E1E4E5" stroke-width="2.52" stroke-linecap="round" stroke-linejoin="round" mask="url(#b)"/>
      <path d="M450.58 126.098c0 21.094 17.093 38.195 38.18 38.195 21.086 0 38.18-17.1 38.18-38.195 0-21.094-17.094-62.696-38.18-62.696-21.087 0-38.18 41.602-38.18 62.696" fill="#FFF" mask="url(#b)"/>
      <path d="M450.58 126.098c0 21.094 17.093 38.195 38.18 38.195 21.086 0 38.18-17.1 38.18-38.195 0-21.094-17.094-62.696-38.18-62.696-21.087 0-38.18 41.602-38.18 62.696z" stroke="#E1E4E5" stroke-width="2.52" stroke-linecap="round" stroke-linejoin="round" mask="url(#b)"/>
      <g mask="url(#b)">
        <path d="M149.943 67.92h13.87" fill="#FFF"/>
        <path d="M149.943 67.92h13.87" stroke="#E1E4E5" stroke-width="2.52" stroke-linecap="round" stroke-linejoin="round"/>
      </g>
      <g mask="url(#b)">
        <path d="M177.648 67.92h22.695" fill="#FFF"/>
        <path d="M177.648 67.92h22.695" stroke="#E1E4E5" stroke-width="2.52" stroke-linecap="round" stroke-linejoin="round"/>
      </g>
      <g mask="url(#b)">
        <path d="M274.77 17.468h10.086" fill="#FFF"/>
        <path d="M274.77 17.468h10.086" stroke="#E1E4E5" stroke-width="2.52" stroke-linecap="round" stroke-linejoin="round"/>
      </g>
      <g mask="url(#b)">
        <path fill="#FFF" d="M474.603 23.774h8.826"/>
        <path stroke="#E1E4E5" stroke-width="2.52" stroke-linecap="round" stroke-linejoin="round" d="M474.603 23.774h8.826"/>
      </g>
      <g mask="url(#b)">
        <path fill="#FFF" d="M325.504 23.774h14.5"/>
        <path stroke="#E1E4E5" stroke-width="2.52" stroke-linecap="round" stroke-linejoin="round" d="M325.504 23.774h14.5"/>
      </g>
      <g mask="url(#b)">
        <path fill="#FFF" d="M359.247 11.16v1.262h7.566"/>
        <path stroke="#E1E4E5" stroke-width="2.52" stroke-linecap="round" stroke-linejoin="round" d="M359.247 11.16v1.262h7.566"/>
      </g>
      <g mask="url(#b)">
        <path d="M530.443 66.03h13.927" fill="#FFF"/>
        <path d="M530.443 66.03h13.927" stroke="#E1E4E5" stroke-width="2.52" stroke-linecap="round" stroke-linejoin="round"/>
      </g>
      <g mask="url(#b)">
        <path d="M554.682 66.03h10.087" fill="#FFF"/>
        <path d="M554.682 66.03h10.087" stroke="#E1E4E5" stroke-width="2.52" stroke-linecap="round" stroke-linejoin="round"/>
      </g>
    </g>
    <g transform="matrix(-1 0 0 1 475 2)">
      <path d="M202.65 45.96v-.56c-.21-4.12-1.4-7.613-3.43-10.267-.56-.77-1.26-1.467-1.96-2.026-1.47-1.187-3.22-2.095-5.18-2.584l-7.28-1.886-2.45-.63c7.84 1.887 11.83 9.71 10.22 20.885 0 .21-.07.35-.14.56-.21 1.256-.56 2.583-1.05 3.84-.56 1.537-1.19 3.004-2.03 4.54-1.26 2.306-2.8 4.68-4.55 6.985-4.27 5.588-5.88 7.404-10.36 11.665-.35.35-.77.698-1.12 1.047l-.49.488c-.63.63-1.33 1.257-2.03 1.886-3.99 3.772-8.19 7.753-12.25 11.874-.49.49-.98.978-1.4 1.467-.14.14-.28.28-.42.49-.28.348-.63.697-.91.976-.14.21-.35.35-.49.56-.28.28-.56.63-.77.908-.14.21-.28.35-.42.56-.28.348-.49.628-.77.977-.07.14-.21.21-.28.35-.07.07-.07.14-.14.14-.14.138-.21.278-.28.418-.21.28-.35.49-.56.768-.07.14-.21.28-.28.42-.14.28-.35.49-.49.768-.07.14-.21.28-.28.42-.21.28-.35.558-.49.908-.07.14-.14.21-.21.35 0 0 0 .07-.07.07-.07.068-.07.208-.14.278-.21.35-.35.698-.49 1.048-.07.14-.14.35-.21.558-.14.28-.28.63-.35.908 0 .07-.07.14-.07.28-.07.14-.07.21-.07.35-.07.278-.21.628-.28.907-.07.21-.14.42-.14.63-.07.278-.14.627-.21.907 0 .14-.07.28-.07.42-.28 1.535-.35 3.142-.21 4.888.35 5.1 3.57 9.08 8.12 10.198 4.55 1.117 13.79.698 13.79.698-4.34-1.118-11.9-3.283-12.25-8.382-.14-1.885 0-3.632.28-5.308.07-.35.14-.628.21-.908.07-.21.07-.42.14-.628.07-.28.21-.63.28-.908.07-.21.14-.42.21-.56.14-.348.21-.628.35-.907.07-.21.14-.35.21-.56.14-.348.35-.697.49-1.047.07-.14.14-.28.21-.35.07-.14.14-.208.21-.348.14-.28.35-.56.49-.908.07-.14.21-.28.28-.42.14-.28.35-.488.49-.768.07-.14.21-.28.28-.42.21-.278.35-.488.56-.767.07-.14.21-.28.28-.42.14-.21.28-.348.42-.558.21-.28.49-.63.77-.91.14-.208.28-.348.49-.558.28-.28.49-.628.77-.908.14-.21.35-.35.49-.558.28-.35.63-.63.91-.978.14-.14.28-.28.42-.49.42-.488.91-.977 1.4-1.466 4.06-4.12 8.19-8.032 12.25-11.874l.14-.14c.63-.628 1.26-1.187 1.82-1.676.28-.28.56-.558.84-.768l.84-.838c10.64-10.128 16.1-16.274 17.92-27.03 0-.07 0-.14.07-.21 0-.14.07-.21.07-.35.28-1.955.35-3.77.35-5.517z" stroke="#323854" stroke-width="2.8" fill="#F4BA5D" fill-rule="nonzero" stroke-linecap="round" stroke-linejoin="round"/>
      <path stroke="#323854" stroke-width="2.8" fill="#FFD371" fill-rule="nonzero" stroke-linecap="round" stroke-linejoin="round" d="M159.39 50.988l-9.66-2.445-5.25-4.75 9.66 2.445z"/>
      <path d="M189.56 21.722h.42c.56 0 1.12.07 1.68.14.84.14 1.68.28 2.52.49l-9.66-2.516c-.84-.21-1.61-.35-2.52-.49-.56-.068-1.12-.138-1.68-.138h-2.03-.07c-.42 0-.91.07-1.33.07l-1.47.21c-.14 0-.28.07-.49.07-.35.07-.7.14-1.05.208-.14.07-.35.07-.49.14-.35.07-.7.21-1.05.28-.14.07-.28.07-.42.14-.49.14-.91.28-1.4.488-.07 0-.14.07-.21.07-.42.14-.84.35-1.19.49-.14.07-.28.14-.42.208-.35.14-.63.28-.98.42-.14.07-.28.14-.49.21-.35.14-.7.348-.98.558-.14.07-.21.14-.35.21-.42.28-.91.488-1.33.768-.07.07-.21.14-.28.14l-1.05.628c-.14.07-.28.21-.42.28-.28.21-.56.418-.84.558-.14.07-.28.21-.42.28-.35.21-.63.488-.98.698-.07.07-.21.14-.28.21-.42.28-.77.628-1.19.908-.07.07-.21.14-.28.21-.21.14-.42.348-.63.488l-.14.14c-.56.49-1.12.978-1.68 1.466-.14.07-.21.21-.28.28-.49.42-.91.908-1.4 1.327-.07.07-.21.14-.28.28l-1.47 1.467-.35.35c-.42.488-.84.907-1.26 1.326l-.14.14c-.42.49-.84.978-1.26 1.397-.07.14-.21.21-.28.35-.42.418-.77.907-1.12 1.326l-.07.07c-.35.42-.63.768-.91 1.188-.07.07-.14.14-.21.28-.28.348-.56.767-.84 1.116l-.07.07c-.14.14-.28.35-.35.49l-.07.07-.42.628c-.07.07-.07.14-.14.14-.07.14-.21.28-.28.35-.07.068-.07.138-.14.208-.07.07-.14.21-.21.28-.07.07-.07.07-.07.14-.07.07-.14.14-.14.21 0 .07-.07.07-.07.138-.07.07-.07.14-.14.21 0 0 0 .07-.07.07-.07.07-.07.14-.07.14l9.66 2.514s.07-.07.07-.14c.07-.07.07-.14.14-.21l.07-.07c.07-.07.14-.14.14-.278 0-.07.07-.07.07-.14.07-.07.14-.21.21-.28.07-.07.07-.14.14-.14.07-.14.21-.28.28-.348.07-.07.07-.14.14-.14l.42-.63c0-.07.07-.07.07-.138.14-.14.28-.35.42-.49.28-.35.56-.698.84-1.117.07-.07.14-.14.21-.28.28-.35.63-.768.98-1.187l.07-.07c.35-.42.7-.838 1.12-1.327l.28-.28c.42-.488.84-.907 1.26-1.396 0-.07.07-.07.07-.14.42-.42.84-.908 1.26-1.397.07-.14.21-.21.28-.35l1.47-1.466.28-.28c.49-.418.91-.907 1.4-1.326l.28-.28 1.68-1.466c.28-.21.49-.42.77-.63.07-.07.21-.138.28-.278.42-.28.77-.63 1.19-.908.07-.07.21-.14.28-.21.28-.21.63-.49.91-.698.14-.07.28-.21.42-.28.28-.21.56-.42.84-.558.14-.07.28-.21.42-.28.35-.21.7-.42 1.05-.628.07-.07.21-.14.28-.14.42-.28.84-.49 1.33-.768.14-.07.21-.14.35-.21.35-.21.63-.35.98-.49.14-.07.28-.138.49-.208.28-.14.63-.28.98-.42l.42-.21c.42-.14.77-.348 1.19-.488.07 0 .14-.07.21-.07.49-.21.91-.35 1.4-.49.14-.068.28-.068.42-.138.35-.07.7-.21 1.05-.28.14-.07.35-.07.49-.14l1.05-.21c.14 0 .28-.07.49-.07l1.47-.208c.42-.07.91-.07 1.33-.07h.21c.7-.14 1.19-.14 1.68-.14z" stroke="#323854" stroke-width="2.8" fill="#FFD371" fill-rule="nonzero" stroke-linecap="round" stroke-linejoin="round"/>
      <path d="M186.55 21.792c1.68-.21 3.43-.21 5.18.07 12.88 1.746 19.88 13.9 17.36 30.243-2.45 15.785-10.29 22.35-24.57 36.74-3.85 3.91-8.05 7.682-11.97 11.664-3.5 3.49-6.65 8.1-6.72 11.174-.07 3.073 2.87 4.61 4.2 4.47l-.07 8.312c-6.02.628-11.76-1.956-12.25-8.382-.63-8.31 3.64-14.458 10.71-21.652 4.06-4.12 8.19-8.032 12.25-11.874 13.23-12.502 18.97-20.814 20.93-29.894 2.17-10.198-2.17-21.163-11.27-22.42-1.26-.21-2.52-.21-3.85-.07-14.07 1.536-26.95 20.674-27.09 20.884l-5.25-4.75c.63-1.048 15.12-22.63 32.41-24.516z" fill="#FFD371" fill-rule="nonzero"/>
      <path d="M42.35 2.934c1.68-.21 3.43-.21 5.18.07 12.88 1.746 19.88 13.9 17.36 30.243-2.45 15.785-10.29 22.35-24.57 36.74-3.85 3.91-8.05 7.682-11.97 11.663-3.5 3.492-6.65 8.102-6.72 11.176-.07 3.073 2.87 4.61 4.2 4.47l-.07 8.31c-6.02.63-11.76-1.954-12.25-8.38-.63-8.312 3.64-14.458 10.71-21.652 4.06-4.12 8.19-8.033 12.25-11.874C49.7 51.197 55.44 42.886 57.4 33.806c2.17-10.198-2.17-21.164-11.27-22.42-1.26-.21-2.52-.21-3.85-.07C28.21 12.85 15.33 31.99 15.19 32.198l-5.25-4.75c.63-1.048 15.12-22.63 32.41-24.516z" fill="url(#c)" fill-rule="nonzero" transform="translate(144.2 18.858)"/>
      <path d="M186.55 21.792c1.68-.21 3.43-.21 5.18.07 12.88 1.746 19.88 13.9 17.36 30.243-2.45 15.785-10.29 22.35-24.57 36.74-3.85 3.91-8.05 7.682-11.97 11.663-3.5 3.492-6.65 8.102-6.72 11.176-.07 3.073 2.87 4.61 4.2 4.47l-.07 8.31c-6.02.63-11.76-1.954-12.25-8.38-.63-8.312 3.64-14.458 10.71-21.652 4.06-4.12 8.19-8.033 12.25-11.874 13.23-12.503 18.97-20.814 20.93-29.894 2.17-10.198-2.17-21.164-11.27-22.42-1.26-.21-2.52-.21-3.85-.07-14.07 1.536-26.95 20.674-27.09 20.883l-5.25-4.75c.63-1.047 15.12-22.63 32.41-24.515z" stroke="#323854" stroke-width="2.8" stroke-linecap="round" stroke-linejoin="round"/>
      <path stroke="#323854" stroke-width="2.8" fill="#FFD371" fill-rule="nonzero" stroke-linecap="round" stroke-linejoin="round" d="M114.24 183.067h-7.63l-6.02-57.414 19.18-.07z"/>
      <path d="M114.24 183.067h-3.78l-1.54-20.116c-.35-4.61 3.29-8.59 7.98-8.59h.07l-2.73 28.707z" fill="#FD9" fill-rule="nonzero"/>
      <path stroke="#323854" stroke-width="2.8" stroke-linecap="round" stroke-linejoin="round" d="M114.24 183.067h-7.63l-6.02-57.414 19.18-.07z"/>
      <path d="M175.7 13.2l-.14.21-1.47 2.305c-12.81 20.326-17.78 44.562-14.77 68.38l2.24 17.53c1.19 9.36-2.24 18.79-9.38 24.936-11.2 9.71-28.56 15.786-41.58 15.786h-.63c-13.09 0-30.17-6.076-41.09-15.855-6.79-6.075-10.22-15.155-9.24-24.235l2.03-18.72c2.52-23.188-2.52-46.656-14.77-66.423-.49-.768-.98-1.536-1.47-2.235l-.98-1.536" fill="#F4BA5D" fill-rule="nonzero"/>
      <path d="M159.25 84.095c-2.87-22.63 1.47-45.61 12.88-65.237H60.34C67.69 35.622 70.49 54.2 68.46 72.64l-2.03 18.72c-.98 9.08 2.45 18.09 9.24 24.235 10.92 9.78 28.07 15.855 41.09 15.855h.63c13.02 0 30.38-6.076 41.58-15.785.35-.35.7-.628 1.05-.978 1.4-4.12 1.89-8.52 1.33-12.92l-2.1-17.672z" fill="#FFD371" fill-rule="nonzero"/>
      <path d="M175.7 13.2l-.14.21-1.47 2.305c-12.81 20.326-17.78 44.562-14.77 68.38l2.24 17.53c1.19 9.36-2.24 18.79-9.38 24.936-11.2 9.71-28.56 15.786-41.58 15.786h-.63c-13.09 0-30.17-6.076-41.09-15.855-6.79-6.075-10.22-15.155-9.24-24.235l2.03-18.72c2.52-23.188-2.52-46.656-14.77-66.423-.49-.768-.98-1.536-1.47-2.235l-.98-1.536" stroke="#323854" stroke-width="2.8" stroke-linecap="round" stroke-linejoin="round"/>
      <path d="M157.85 84.095c-2.8-21.722.91-43.864 11.34-63l-99.61.208c8.05 6.356 11.48 17.74 11.41 30.732-.07 25.564-7.14 39.324 12.81 53.572 14.42 9.71 32.69 10.547 47.6 4.33 19.11-7.962 16.45-25.842 16.45-25.842z" fill="url(#d)" fill-rule="nonzero"/>
      <path d="M157.85 84.095c-2.8-21.722.91-43.864 11.34-63l-99.61.208c8.05 6.356 11.48 17.74 11.41 30.732-.07 25.564-7.14 39.324 12.81 53.572 14.42 9.71 32.69 10.547 47.6 4.33 19.11-7.962 16.45-25.842 16.45-25.842z" fill="url(#e)" fill-rule="nonzero"/>
      <path d="M172.9 226.162l-125.02.21v-.14c0-7.474 6.09-12.852 13.58-12.922l97.79-.21c7.49 0 13.58 5.38 13.65 12.852v.21z" stroke="#323854" stroke-width="2.8" fill="#FFD371" fill-rule="nonzero" stroke-linecap="round" stroke-linejoin="round"/>
      <path d="M171.08 219.317c-2.31-4.12-6.79-6.147-11.83-6.147l-97.79.21c-5.04 0-9.45 2.095-11.83 6.216l121.45-.28z" fill="#FD9" fill-rule="nonzero"/>
      <path d="M172.9 226.162l-125.02.21v-.14c0-7.474 6.09-12.852 13.58-12.922l97.79-.21c7.49 0 13.58 5.38 13.65 12.852v.21z" stroke="#323854" stroke-width="2.8" stroke-linecap="round" stroke-linejoin="round"/>
      <path d="M119.91 187.397l-19.18.07v-.07c0-4.75 3.85-8.59 8.61-8.59h2.03c4.76 0 8.61 3.84 8.61 8.59h-.07z" stroke="#323854" stroke-width="2.8" fill="#FFD371" fill-rule="nonzero" stroke-linecap="round" stroke-linejoin="round"/>
      <path d="M111.51 178.736v.35c0 4.54 3.71 8.24 8.33 8.24h.07v-.068c0-4.61-3.78-8.452-8.4-8.522z" fill="#FFE8C0" fill-rule="nonzero"/>
      <path d="M119.91 187.397l-19.18.07v-.07c0-4.75 3.85-8.59 8.61-8.59h2.03c4.76 0 8.61 3.84 8.61 8.59h-.07z" stroke="#323854" stroke-width="2.8" stroke-linecap="round" stroke-linejoin="round"/>
      <path d="M174.58 13.69l-129.22.28c-7.35 0-13.23-5.868-13.3-13.202v-.14L187.81.35v.14c.07 7.265-5.88 13.202-13.23 13.202z" fill="#FFD371" fill-rule="nonzero"/>
      <path d="M174.58 13.69l-129.22.28c-7.35 0-13.23-5.868-13.3-13.202v-.14L187.81.35v.14c.07 7.265-5.88 13.202-13.23 13.202z" stroke="#323854" stroke-width="2.8" stroke-linecap="round" stroke-linejoin="round"/>
      <path d="M186.41 6.496c.91-1.816 1.47-3.842 1.47-6.007V.35L32.13.63v.138c0 2.166.56 4.26 1.47 6.007l152.81-.28z" fill="#FD9" fill-rule="nonzero"/>
      <path fill="#FFE8C0" fill-rule="nonzero" d="M158.9.42h-8.4v13.34h8.4M144.13.42h-2.73v13.34h2.73M56.07 7.334C55.02 5.1 54.04 2.864 52.99.63h-8.26l3.78 6.704h7.56z"/>
      <path d="M174.58 13.69l-129.22.28c-7.35 0-13.23-5.868-13.3-13.202v-.14L187.81.35v.14c.07 7.265-5.88 13.202-13.23 13.202z" stroke="#323854" stroke-width="2.8" stroke-linecap="round" stroke-linejoin="round"/>
      <path d="M154.49 213.17c0-2.304-1.82-4.82-4.06-4.82h-7.35c-6.16 0-11.13-4.958-11.13-11.035v-.21c0-6.146-5.04-11.175-11.27-11.175l-19.81.07c-6.16 0-11.2 5.03-11.2 11.246v.21c0 6.146-4.97 11.105-11.06 11.105h-8.33c-2.24 0-4.06 2.515-4.06 4.75v.07l88.27-.21z" stroke="#323854" stroke-width="2.8" fill="#FFD371" fill-rule="nonzero" stroke-linecap="round" stroke-linejoin="round"/>
      <path d="M111.86 200.11c6.93 1.117 13.86 1.396 20.65.907-.42-1.187-.63-2.375-.63-3.702v-.21c0-6.146-5.04-11.175-11.27-11.175l-19.81.07c-.98 0-1.89.14-2.73.35 1.75 7.194 6.86 12.99 13.79 13.76z" fill="#FD9" fill-rule="nonzero"/>
      <path fill="#F4BA5D" fill-rule="nonzero" d="M62.51 125.234H50.4l-.21-8.312H62.3"/>
      <path stroke="#323854" stroke-width="2.8" stroke-linecap="round" stroke-linejoin="round" d="M62.51 125.234H50.4l-.21-8.312H62.3z"/>
      <path d="M28.07 25.424l12.11 1.327c13.51 1.468 25.34 15.926 25.48 16.136l-7.35-.35c-.07-.28-16.73-15.645-30.24-17.112z" fill-rule="nonzero" fill="#FFD371"/>
      <path d="M65.66 42.816l-7.35-.35c-.14-.14-16.73-15.575-30.24-17.042l12.11 1.327c13.51 1.398 25.34 15.926 25.48 16.066" stroke="#323854" stroke-width="2.8" fill="#FFD371" fill-rule="nonzero" stroke-linecap="round" stroke-linejoin="round"/>
      <path d="M28.07 25.424l12.11 1.327c13.51 1.468 25.34 15.926 25.48 16.136l-7.35-.35c-.07-.28-16.73-15.645-30.24-17.112z" stroke-linecap="round" stroke-linejoin="round" stroke="#323854" stroke-width="2.8"/>
      <path d="M28.98 17.112l12.11 1.327c-1.47-.14-3.01-.21-4.55-.07l-12.11-1.328c1.54-.14 3.08-.14 4.55.07z" fill-rule="nonzero" fill="#FFD371"/>
      <path d="M36.54 18.3l-12.11-1.327c1.54-.07 3.01-.07 4.55.07l12.11 1.327c-1.47-.14-3.01-.21-4.55-.07" stroke="#323854" stroke-width="2.8" fill="#FFD371" fill-rule="nonzero" stroke-linecap="round" stroke-linejoin="round"/>
      <path d="M28.98 17.112l12.11 1.327c-1.47-.14-3.01-.21-4.55-.07l-12.11-1.328c1.54-.14 3.08-.14 4.55.07z" stroke-linecap="round" stroke-linejoin="round" stroke="#323854" stroke-width="2.8"/>
      <path d="M62.3 116.922H50.19c2.73-.21 6.65-2.933 6.16-6.565-.49-3.632-2.03-6.077-9.59-12.083-4.2-3.353-8.61-6.496-12.88-9.57C18.41 77.53 3.85 66.983 1.05 51.478-1.89 36.25 5.32 22.28 18.97 17.95c1.82-.558 3.71-.908 5.53-.977L36.61 18.3c-1.82.14-3.64.42-5.53.978-13.58 4.12-20.79 17.6-17.92 33.526 2.8 15.436 17.36 26.052 32.83 37.228 4.27 3.073 8.61 6.216 12.88 9.57 7.56 5.936 8.82 9.01 8.61 12.64-.21 2.026-2.45 4.47-5.18 4.68z" fill-rule="nonzero" fill="#F4BA5D"/>
      <path d="M62.3 116.922H50.19c2.73-.21 6.65-2.933 6.16-6.565-.49-3.632-2.03-6.077-9.59-12.083-4.2-3.353-8.61-6.496-12.88-9.57C18.41 77.53 3.85 66.983 1.05 51.478-1.89 36.25 5.32 22.28 18.97 17.95c1.82-.558 3.71-.908 5.53-.977L36.61 18.3c-1.82.14-3.64.42-5.53.978-13.58 4.12-20.79 17.6-17.92 33.526 2.8 15.436 17.36 26.052 32.83 37.228 4.27 3.073 8.61 6.216 12.88 9.57 7.56 5.936 8.82 9.01 8.61 12.64-.21 2.026-2.45 4.47-5.18 4.68z" stroke-linecap="round" stroke-linejoin="round" stroke="#323854" stroke-width="2.8"/>
      <path d="M36.54 18.3c11.83-.77 22.54 6.984 28.84 12.782 3.36 3.143 3.5 8.38.35 11.734l-.07.07c-.14-.21-14.07-17.183-28.91-16.205-1.33.07-2.66.35-3.99.7-9.59 2.863-14.49 12.153-12.39 23.538C22.54 63 35.91 72.71 50.05 82.908c4.27 3.142 8.75 6.355 13.09 9.778 7.56 6.007 12.18 11.385 11.62 19.906-.42 6.566-5.95 12.223-12.25 12.642l-.21-8.312c2.73-.21 5.04-2.654 5.18-4.68.21-3.63-1.05-6.704-8.61-12.64-4.2-3.354-8.61-6.497-12.88-9.57C30.52 78.856 15.96 68.31 13.16 52.804 10.29 36.88 17.5 23.398 31.08 19.278c1.82-.56 3.64-.908 5.46-.978z" fill="#FFD371" fill-rule="nonzero"/>
      <path d="M36.54 18.3c11.83-.77 22.54 6.984 28.84 12.782 3.36 3.143 3.5 8.38.35 11.734l-.07.07c-.14-.21-14.07-17.183-28.91-16.205-1.33.07-2.66.35-3.99.7-9.59 2.863-14.49 12.153-12.39 23.538C22.54 63 35.91 72.71 50.05 82.908c4.27 3.142 8.75 6.355 13.09 9.778 7.56 6.007 12.18 11.385 11.62 19.906-.42 6.566-5.95 12.223-12.25 12.642l-.21-8.312c2.73-.21 5.04-2.654 5.18-4.68.21-3.63-1.05-6.704-8.61-12.64-4.2-3.354-8.61-6.497-12.88-9.57C30.52 78.856 15.96 68.31 13.16 52.804 10.29 36.88 17.5 23.398 31.08 19.278c1.82-.56 3.64-.908 5.46-.978z" fill="url(#f)" fill-rule="nonzero"/>
      <path d="M36.54 18.3c11.83-.77 22.54 6.984 28.84 12.782 3.36 3.143 3.5 8.38.35 11.734l-.07.07c-.14-.21-14.07-17.183-28.91-16.205-1.33.07-2.66.35-3.99.7-9.59 2.863-14.49 12.153-12.39 23.538C22.54 63 35.91 72.71 50.05 82.908c4.27 3.142 8.75 6.355 13.09 9.778 7.56 6.007 12.18 11.385 11.62 19.906-.42 6.566-5.95 12.223-12.25 12.642l-.21-8.312c2.73-.21 5.04-2.654 5.18-4.68.21-3.63-1.05-6.704-8.61-12.64-4.2-3.354-8.61-6.497-12.88-9.57C30.52 78.856 15.96 68.31 13.16 52.804 10.29 36.88 17.5 23.398 31.08 19.278c1.82-.56 3.64-.908 5.46-.978z" stroke="#323854" stroke-width="2.8" stroke-linecap="round" stroke-linejoin="round"/>
      <path d="M145.18 67.052c0 13.9-11.2 25.215-24.99 25.285-13.86 0-25.06-8.66-25.13-25.145 0-16.973 11.2-25.214 24.99-25.284 13.86-.07 25.06 11.245 25.13 25.144z" fill="#F4BA5D" fill-rule="nonzero"/>
      <path d="M145.18 64.678c0 12.642-10.15 22.84-22.68 22.91-12.53.07-22.68-7.824-22.75-22.77 0-15.367 10.15-22.84 22.68-22.91 12.53-.07 22.68 10.197 22.75 22.77z" stroke="#323854" stroke-width="2.8" fill="#F4BA5D" fill-rule="nonzero" stroke-linecap="round" stroke-linejoin="round"/>
      <ellipse fill="#FFE8C0" fill-rule="nonzero" transform="rotate(-.108 125.37 64.748)" cx="125.37" cy="64.748" rx="19.81" ry="22.84"/>
      <path d="M145.18 64.678c0 12.642-8.82 22.84-19.74 22.84-10.92 0-19.81-10.198-19.81-22.77 0-12.643 8.82-22.84 19.74-22.84 10.85-.07 19.74 10.197 19.81 22.77z" fill="url(#g)" fill-rule="nonzero"/>
      <ellipse stroke="#323854" stroke-width="2.8" stroke-linecap="round" stroke-linejoin="round" transform="rotate(-.108 125.37 64.748)" cx="125.37" cy="64.748" rx="19.81" ry="22.84"/>
      <path d="M154.49 213.17c0-2.304-1.82-4.82-4.06-4.82h-7.35c-6.16 0-11.13-4.958-11.13-11.035v-.21c0-6.146-5.04-11.175-11.27-11.175l-19.81.07c-6.16 0-11.2 5.03-11.2 11.246v.21c0 6.146-4.97 11.105-11.06 11.105h-8.33c-2.24 0-4.06 2.515-4.06 4.75v.07l88.27-.21z" stroke="#323854" stroke-width="2.8" stroke-linecap="round" stroke-linejoin="round"/>
      <path d="M146.93 216.174c.91 2.794 1.75 5.588 2.66 8.38.07.28 6.86.35 6.86.35-1.19-3.352-2.38-5.308-3.57-8.73h-5.95z" fill="#FFE8C0" fill-rule="nonzero"/>
      <path d="M20.79 226.44l182.98-.348" stroke="#323854" stroke-width="2.8" stroke-linecap="round" stroke-linejoin="round"/>
      <path d="M118.37 191.448h2.45c1.89 4.61 2.73 9.64 2.38 14.598h-3.43c-.07-4.89-.49-9.778-1.4-14.598z" fill="#FFE8C0" fill-rule="nonzero"/>
    </g>
    <path d="M406.05 55.013v9.5M400.17 65.84v1.746M379.1 200.712v2.445" stroke="#323854" stroke-width="2.1" stroke-linecap="round" stroke-linejoin="round"/>
    <g fill-rule="nonzero">
      <path d="M348.44 66.99l-8.4-.488c0-.698 4.06-1.327 3.43-1.327l3.85.49c.63 0 1.12.628 1.12 1.326" fill="#85714A"/>
      <path d="M347.32 65.664l-3.92-.49 3.92.49" fill="#263152"/>
      <path d="M354.53 54.768c.21.28.35.56.35.978l.14 21.862c0 .35-.14.698-.35.978-.21.28-.56.42-.84.42l-6.51.14c-.35 0-.63-.14-.84-.35-.21-.28-.35-.56-.35-.978l-.07-9.5-5.32-.14c-.42 0-.77-.28-1.05-.698-.21-.42-.21-.908 0-1.327l5.67-10.896c.21-.42.63-.698 1.05-.698l7.21-.14c.35 0 .7.14.91.348zm-1.89 21.513l-.14-18.788c0-.21-.21-.42-.42-.42l-4.97.14-3.99 7.684c-.14.28.07.56.35.56l3.85.07c.63 0 1.19.627 1.19 1.326l.07 9.43h4.06z" fill="#323854"/>
      <path d="M352.5 57.632l.14 18.72-4.06.07-.07-9.43c0-.7-.49-1.328-1.19-1.328l-3.99-.07c-.21 0-.35-.21-.28-.42l3.92-7.682c.07-.14.28-.28.42-.28h4.62c.28-.07.49.14.49.42z" fill="#FFD371"/>
    </g>
  </g>
</svg>
